<mxfile host="app.diagrams.net" modified="2023-12-01T10:45:42.372Z" agent="Mozilla/5.0 (Windows NT 10.0; Win64; x64) AppleWebKit/537.36 (KHTML, like Gecko) Chrome/119.0.0.0 Safari/537.36" etag="eOqfH0V09GGE_GFM521z" version="22.1.5" type="device">
  <diagram name="Page-1" id="ZFhbgT3aK8MrJ4pcOw_P">
    <mxGraphModel dx="1434" dy="768" grid="1" gridSize="10" guides="1" tooltips="1" connect="1" arrows="1" fold="1" page="1" pageScale="1" pageWidth="850" pageHeight="1100" math="0" shadow="0">
      <root>
        <mxCell id="0" />
        <mxCell id="1" parent="0" />
        <mxCell id="x54b5TThfwyMr9E21Iyj-1" value="start" style="rounded=1;whiteSpace=wrap;html=1;" parent="1" vertex="1">
          <mxGeometry x="340" y="40" width="120" height="60" as="geometry" />
        </mxCell>
        <mxCell id="x54b5TThfwyMr9E21Iyj-13" value="" style="endArrow=classic;html=1;rounded=0;exitX=0.5;exitY=1;exitDx=0;exitDy=0;entryX=0.5;entryY=0;entryDx=0;entryDy=0;" parent="1" source="x54b5TThfwyMr9E21Iyj-1" target="FYBkqd57Wk8_2AmDzqIk-3" edge="1">
          <mxGeometry width="50" height="50" relative="1" as="geometry">
            <mxPoint x="340" y="210" as="sourcePoint" />
            <mxPoint x="400" y="190" as="targetPoint" />
          </mxGeometry>
        </mxCell>
        <mxCell id="FYBkqd57Wk8_2AmDzqIk-3" value="Input: num1, num2, num3, isSum" style="rhombus;whiteSpace=wrap;html=1;" vertex="1" parent="1">
          <mxGeometry x="245" y="300" width="310" height="80" as="geometry" />
        </mxCell>
        <mxCell id="FYBkqd57Wk8_2AmDzqIk-7" value="" style="endArrow=classic;html=1;rounded=0;exitX=0.5;exitY=1;exitDx=0;exitDy=0;" edge="1" parent="1" target="FYBkqd57Wk8_2AmDzqIk-3">
          <mxGeometry width="50" height="50" relative="1" as="geometry">
            <mxPoint x="400" y="250" as="sourcePoint" />
            <mxPoint x="450" y="360" as="targetPoint" />
          </mxGeometry>
        </mxCell>
        <mxCell id="FYBkqd57Wk8_2AmDzqIk-9" value="" style="endArrow=classic;html=1;rounded=0;exitX=0;exitY=0.5;exitDx=0;exitDy=0;" edge="1" parent="1" source="FYBkqd57Wk8_2AmDzqIk-3" target="FYBkqd57Wk8_2AmDzqIk-11">
          <mxGeometry width="50" height="50" relative="1" as="geometry">
            <mxPoint x="400" y="410" as="sourcePoint" />
            <mxPoint x="130" y="340" as="targetPoint" />
          </mxGeometry>
        </mxCell>
        <mxCell id="FYBkqd57Wk8_2AmDzqIk-10" value="" style="endArrow=classic;html=1;rounded=0;exitX=1;exitY=0.5;exitDx=0;exitDy=0;" edge="1" parent="1" source="FYBkqd57Wk8_2AmDzqIk-3" target="FYBkqd57Wk8_2AmDzqIk-12">
          <mxGeometry width="50" height="50" relative="1" as="geometry">
            <mxPoint x="570" y="420" as="sourcePoint" />
            <mxPoint x="680" y="340" as="targetPoint" />
          </mxGeometry>
        </mxCell>
        <mxCell id="FYBkqd57Wk8_2AmDzqIk-11" value=" Find the maximum&lt;br&gt;&amp;nbsp;of num1, num2, and num3&lt;br&gt;Return: maximum number" style="shape=parallelogram;perimeter=parallelogramPerimeter;whiteSpace=wrap;html=1;fixedSize=1;" vertex="1" parent="1">
          <mxGeometry x="30" y="290" width="180" height="100" as="geometry" />
        </mxCell>
        <mxCell id="FYBkqd57Wk8_2AmDzqIk-12" value="Return:&lt;br&gt;&amp;nbsp;num1 + num2 + num3" style="shape=parallelogram;perimeter=parallelogramPerimeter;whiteSpace=wrap;html=1;fixedSize=1;" vertex="1" parent="1">
          <mxGeometry x="630" y="310" width="120" height="60" as="geometry" />
        </mxCell>
        <mxCell id="FYBkqd57Wk8_2AmDzqIk-13" value="true" style="text;html=1;strokeColor=none;fillColor=none;align=center;verticalAlign=middle;whiteSpace=wrap;rounded=0;" vertex="1" parent="1">
          <mxGeometry x="555" y="310" width="60" height="30" as="geometry" />
        </mxCell>
        <mxCell id="FYBkqd57Wk8_2AmDzqIk-14" value="false" style="text;html=1;strokeColor=none;fillColor=none;align=center;verticalAlign=middle;whiteSpace=wrap;rounded=0;" vertex="1" parent="1">
          <mxGeometry x="200" y="310" width="60" height="30" as="geometry" />
        </mxCell>
        <mxCell id="FYBkqd57Wk8_2AmDzqIk-15" value="" style="endArrow=classic;html=1;rounded=0;exitX=0.431;exitY=1.017;exitDx=0;exitDy=0;exitPerimeter=0;entryX=0.25;entryY=0;entryDx=0;entryDy=0;" edge="1" parent="1" source="FYBkqd57Wk8_2AmDzqIk-11" target="FYBkqd57Wk8_2AmDzqIk-17">
          <mxGeometry width="50" height="50" relative="1" as="geometry">
            <mxPoint x="150" y="470" as="sourcePoint" />
            <mxPoint x="400" y="700" as="targetPoint" />
          </mxGeometry>
        </mxCell>
        <mxCell id="FYBkqd57Wk8_2AmDzqIk-16" value="" style="endArrow=classic;html=1;rounded=0;exitX=0.438;exitY=1.028;exitDx=0;exitDy=0;exitPerimeter=0;" edge="1" parent="1" source="FYBkqd57Wk8_2AmDzqIk-12" target="FYBkqd57Wk8_2AmDzqIk-17">
          <mxGeometry width="50" height="50" relative="1" as="geometry">
            <mxPoint x="560" y="440" as="sourcePoint" />
            <mxPoint x="480" y="690" as="targetPoint" />
          </mxGeometry>
        </mxCell>
        <mxCell id="FYBkqd57Wk8_2AmDzqIk-17" value="end" style="rounded=1;whiteSpace=wrap;html=1;" vertex="1" parent="1">
          <mxGeometry x="360" y="680" width="120" height="60" as="geometry" />
        </mxCell>
      </root>
    </mxGraphModel>
  </diagram>
</mxfile>
